<svg xmlns="http://www.w3.org/2000/svg" viewBox="0 0 24 24" id="Technology-Robot-Ai-Signal-2--Streamline-Pixel" height="24" width="24">
  <desc>
    Technology Robot Ai Signal 2 Streamline Icon: https://streamlinehq.com
  </desc>
  <title>technology-robot-ai-signal-2</title>
  <g>
    <path d="m20.56875 10.2825 -1.1400000000000001 0 0 -3.4275 -1.1475 0 0 9.1425 1.1475 0 0 -4.5675 1.1400000000000001 0 0 1.1400000000000001 1.1475 0 0 -3.4275 -1.1475 0 0 1.1400000000000001z" fill="#00c400" stroke-width="0.75"></path>
    <path d="m17.14125 21.7125 0 2.2874999999999996 1.1400000000000001 0 0 -1.1400000000000001 2.2874999999999996 0 0 1.1400000000000001 1.1475 0 0 -3.4275 -1.1475 0 0 1.1400000000000001 -3.4275 0z" fill="#00c400" stroke-width="0.75"></path>
    <path d="M19.42875 1.1400000000000001h1.1400000000000001v1.1475h-1.1400000000000001Z" fill="#00c400" stroke-width="0.75"></path>
    <path d="M18.28125 2.2874999999999996h1.1475v1.1400000000000001h-1.1475Z" fill="#00c400" stroke-width="0.75"></path>
    <path d="M18.28125 0h1.1475v1.1400000000000001h-1.1475Z" fill="#00c400" stroke-width="0.75"></path>
    <path d="M17.14125 15.997499999999999h1.1400000000000001v1.1475h-1.1400000000000001Z" fill="#00c400" stroke-width="0.75"></path>
    <path d="M17.14125 5.715h1.1400000000000001v1.1400000000000001h-1.1400000000000001Z" fill="#00c400" stroke-width="0.75"></path>
    <path d="m16.00125 10.2825 -1.1475 0 0 -1.1400000000000001 -1.1400000000000001 0 0 2.2874999999999996 1.1400000000000001 0 0 1.1400000000000001 1.1475 0 0 -1.1400000000000001 1.1400000000000001 0 0 -2.2874999999999996 -1.1400000000000001 0 0 1.1400000000000001z" fill="#00c400" stroke-width="0.75"></path>
    <path d="M16.00125 1.1400000000000001h1.1400000000000001v1.1475h-1.1400000000000001Z" fill="#00c400" stroke-width="0.75"></path>
    <path d="M6.85875 17.145v1.1400000000000001h1.1400000000000001v1.1400000000000001h-4.574999999999999v1.1475h17.145V19.424999999999997h-4.5675v-1.1400000000000001h1.1400000000000001v-1.1400000000000001Zm7.995 2.2800000000000002h-5.715v-1.1400000000000001h5.715Z" fill="#00c400" stroke-width="0.75"></path>
    <path d="M14.85375 2.2874999999999996h1.1475v1.1400000000000001h-1.1475Z" fill="#00c400" stroke-width="0.75"></path>
    <path d="M14.85375 0h1.1475v1.1400000000000001h-1.1475Z" fill="#00c400" stroke-width="0.75"></path>
    <path d="m7.998749999999999 21.7125 0 2.2874999999999996 1.1400000000000001 0 0 -1.1400000000000001 5.715 0 0 1.1400000000000001 1.1475 0 0 -2.2874999999999996 -8.0025 0z" fill="#00c400" stroke-width="0.75"></path>
    <path d="M12.56625 1.1400000000000001h1.1475v1.1475h-1.1475Z" fill="#00c400" stroke-width="0.75"></path>
    <path d="m12.56625 13.71 -1.1400000000000001 0 0 1.1475 -1.1400000000000001 0 0 1.1400000000000001 3.4275 0 0 -1.1400000000000001 -1.1475 0 0 -1.1475z" fill="#00c400" stroke-width="0.75"></path>
    <path d="M11.42625 0h1.1400000000000001v1.1400000000000001h-1.1400000000000001Z" fill="#00c400" stroke-width="0.75"></path>
    <path d="M10.286249999999999 1.1400000000000001h1.1400000000000001v1.1475h-1.1400000000000001Z" fill="#00c400" stroke-width="0.75"></path>
    <path d="m10.286249999999999 9.1425 -1.1475 0 0 1.1400000000000001 -1.1400000000000001 0 0 -1.1400000000000001 -1.1400000000000001 0 0 2.2874999999999996 1.1400000000000001 0 0 1.1400000000000001 1.1400000000000001 0 0 -1.1400000000000001 1.1475 0 0 -2.2874999999999996z" fill="#00c400" stroke-width="0.75"></path>
    <path d="m7.998749999999999 6.855 1.1400000000000001 0 0 1.1475 5.715 0 0 -1.1475 1.1475 0 0 -1.1400000000000001 1.1400000000000001 0 0 -1.1475 -4.574999999999999 0 0 -2.2800000000000002 -1.1400000000000001 0 0 2.2800000000000002 -4.5675 0 0 1.1475 1.1400000000000001 0 0 1.1400000000000001z" fill="#00c400" stroke-width="0.75"></path>
    <path d="M7.998749999999999 2.2874999999999996h1.1400000000000001v1.1400000000000001h-1.1400000000000001Z" fill="#00c400" stroke-width="0.75"></path>
    <path d="M7.998749999999999 0h1.1400000000000001v1.1400000000000001h-1.1400000000000001Z" fill="#00c400" stroke-width="0.75"></path>
    <path d="M6.85875 1.1400000000000001h1.1400000000000001v1.1475h-1.1400000000000001Z" fill="#00c400" stroke-width="0.75"></path>
    <path d="M5.71125 15.997499999999999h1.1475v1.1475h-1.1475Z" fill="#00c400" stroke-width="0.75"></path>
    <path d="M5.71125 5.715h1.1475v1.1400000000000001h-1.1475Z" fill="#00c400" stroke-width="0.75"></path>
    <path d="m5.71125 6.855 -1.1400000000000001 0 0 3.4275 -1.1475 0 0 -1.1400000000000001 -1.1400000000000001 0 0 3.4275 1.1400000000000001 0 0 -1.1400000000000001 1.1475 0 0 4.5675 1.1400000000000001 0 0 -9.1425z" fill="#00c400" stroke-width="0.75"></path>
    <path d="M4.57125 2.2874999999999996h1.1400000000000001v1.1400000000000001h-1.1400000000000001Z" fill="#00c400" stroke-width="0.75"></path>
    <path d="M4.57125 0h1.1400000000000001v1.1400000000000001h-1.1400000000000001Z" fill="#00c400" stroke-width="0.75"></path>
    <path d="M3.42375 1.1400000000000001h1.1475v1.1475h-1.1475Z" fill="#00c400" stroke-width="0.75"></path>
    <path d="m2.28375 24 1.1400000000000001 0 0 -1.1400000000000001 2.2874999999999996 0 0 1.1400000000000001 1.1475 0 0 -2.2874999999999996 -3.435 0 0 -1.1400000000000001 -1.1400000000000001 0 0 3.4275z" fill="#00c400" stroke-width="0.75"></path>
  </g>
</svg>