<svg xmlns="http://www.w3.org/2000/svg" viewBox="0 0 24 24" id="Content-Files-Draw-Content--Streamline-Pixel" height="24" width="24">
  <desc>
    Content Files Draw Content Streamline Icon: https://streamlinehq.com
  </desc>
  <title>content-files-draw-content</title>
  <g>
    <path d="M22.29 18.862499999999997h1.1400000000000001v1.1400000000000001h-1.1400000000000001Z" fill="#00c400" stroke-width="0.75"></path>
    <path d="M21.142500000000002 17.715h1.1475v1.1475h-1.1475Z" fill="#00c400" stroke-width="0.75"></path>
    <path d="M21.142500000000002 9.72h1.1475V12h-1.1475Z" fill="#00c400" stroke-width="0.75"></path>
    <path d="M18.862499999999997 20.0025h3.4275v1.1400000000000001h-3.4275Z" fill="#00c400" stroke-width="0.75"></path>
    <path d="M20.0025 16.575000000000003h1.1400000000000001v1.1400000000000001h-1.1400000000000001Z" fill="#00c400" stroke-width="0.75"></path>
    <path d="m20.0025 10.86 -1.1400000000000001 0 0 -1.1400000000000001 -1.1475 0 0 1.1400000000000001 -1.1400000000000001 0 0 1.1400000000000001 -1.1475 0 0 1.1475 -1.1400000000000001 0 0 1.1400000000000001 -1.1400000000000001 0 0 1.1400000000000001 -1.1475 0 0 1.1475 1.1475 0 0 1.1400000000000001 1.1400000000000001 0 0 1.1475 1.1400000000000001 0 0 -1.1475 1.1475 0 0 -1.1400000000000001 1.1400000000000001 0 0 -1.1475 1.1475 0 0 -1.1400000000000001 1.1400000000000001 0 0 -1.1400000000000001 1.1400000000000001 0 0 -1.1475 -1.1400000000000001 0 0 -1.1400000000000001z" fill="#00c400" stroke-width="0.75"></path>
    <path d="M18.862499999999997 8.5725h2.2800000000000002v1.1475h-2.2800000000000002Z" fill="#00c400" stroke-width="0.75"></path>
    <path d="M16.575000000000003 21.142500000000002h2.2874999999999996v1.1475H16.575000000000003Z" fill="#00c400" stroke-width="0.75"></path>
    <path d="M15.4275 8.5725h1.1475v1.1475h-1.1475Z" fill="#00c400" stroke-width="0.75"></path>
    <path d="M15.4275 4.005h1.1475v1.1400000000000001h-1.1475Z" fill="#00c400" stroke-width="0.75"></path>
    <path d="M4.005 22.29H16.575000000000003v1.1400000000000001H4.005Z" fill="#00c400" stroke-width="0.75"></path>
    <path d="M14.287500000000001 7.4325h1.1400000000000001v1.1400000000000001h-1.1400000000000001Z" fill="#00c400" stroke-width="0.75"></path>
    <path d="M14.287500000000001 5.1450000000000005h1.1400000000000001v1.1400000000000001h-1.1400000000000001Z" fill="#00c400" stroke-width="0.75"></path>
    <path d="m12 16.575000000000003 -1.1400000000000001 0 0 3.4275 3.4275 0 0 -1.1400000000000001 -2.2874999999999996 0 0 -2.2874999999999996z" fill="#00c400" stroke-width="0.75"></path>
    <path d="m13.1475 12 0 -1.1400000000000001 1.1400000000000001 0 0 -1.1400000000000001 -3.4275 0 0 1.1400000000000001 1.1400000000000001 0L12 12l1.1475 0z" fill="#00c400" stroke-width="0.75"></path>
    <path d="M12 4.005h1.1475v1.1400000000000001H12Z" fill="#00c400" stroke-width="0.75"></path>
    <path d="m8.5725 15.4275 0 -1.1400000000000001 -1.1400000000000001 0 0 2.2874999999999996 3.4275 0 0 -1.1475 -2.2874999999999996 0z" fill="#00c400" stroke-width="0.75"></path>
    <path d="M9.72 13.1475h1.1400000000000001v1.1400000000000001h-1.1400000000000001Z" fill="#00c400" stroke-width="0.75"></path>
    <path d="M7.4325 18.862499999999997h2.2874999999999996v1.1400000000000001H7.4325Z" fill="#00c400" stroke-width="0.75"></path>
    <path d="m8.5725 12 0 -1.1400000000000001 1.1475 0 0 -1.1400000000000001 -3.435 0 0 1.1400000000000001 1.1475 0 0 1.1400000000000001 1.1400000000000001 0z" fill="#00c400" stroke-width="0.75"></path>
    <path d="m14.287500000000001 7.4325 0 -1.1475 -2.2874999999999996 0 0 -1.1400000000000001 -1.1400000000000001 0 0 1.1400000000000001 -1.1400000000000001 0 0 -3.4275 -1.1475 0 0 3.4275 -1.1400000000000001 0 0 -1.1400000000000001 -1.1475 0 0 2.2874999999999996 8.0025 0z" fill="#00c400" stroke-width="0.75"></path>
    <path d="M5.1450000000000005 17.715h2.2874999999999996v1.1475H5.1450000000000005Z" fill="#00c400" stroke-width="0.75"></path>
    <path d="M5.1450000000000005 7.4325h1.1400000000000001v1.1400000000000001H5.1450000000000005Z" fill="#00c400" stroke-width="0.75"></path>
    <path d="M5.1450000000000005 4.005h1.1400000000000001v1.1400000000000001H5.1450000000000005Z" fill="#00c400" stroke-width="0.75"></path>
    <path d="M4.005 8.5725h1.1400000000000001v9.1425H4.005Z" fill="#00c400" stroke-width="0.75"></path>
    <path d="M4.005 6.285h1.1400000000000001v1.1475H4.005Z" fill="#00c400" stroke-width="0.75"></path>
    <path d="M2.8575 18.862499999999997h1.1475v3.4275H2.8575Z" fill="#00c400" stroke-width="0.75"></path>
    <path d="M2.8575 5.1450000000000005h1.1475v1.1400000000000001H2.8575Z" fill="#00c400" stroke-width="0.75"></path>
    <path d="M1.7175 14.287500000000001h1.1400000000000001v4.574999999999999H1.7175Z" fill="#00c400" stroke-width="0.75"></path>
    <path d="m1.7175 1.7175 15.997499999999999 0 0 5.715 1.1475 0 0 -6.862500000000001L0.5700000000000001 0.5700000000000001l0 13.7175 1.1475 0 0 -12.57z" fill="#00c400" stroke-width="0.75"></path>
  </g>
</svg>