<?xml version="1.0" encoding="UTF-8"?>
<svg id="Layer_2" data-name="Layer 2" xmlns="http://www.w3.org/2000/svg" viewBox="0 0 1211.41 959.27">
  <defs>
    <style>
      .cls-1 {
        fill: #fff;
      }
    </style>
  </defs>
  <g id="Entertainment-Events-Hobbies-Game-Machines-Arcade-1--Streamline-Pixel">
    <g>
      <g>
        <path class="cls-1" d="M495.04,212.57l155.53-.53c15.64-2.32,12.19,40.74,9.03,45.21-2.8,3.96-8.6,4.54-13.04,4.94-31.73,2.89-67.73-2.39-99.95-.04-7.19,1.99-8.52,6.11-9.17,12.81-.96,10-1.49,43.1.18,52.02,1.04,5.59,5.58,8.46,10.83,9.15,32.11,4.17,72.13-4.07,105.1.8,1.96.99,4.81,2.2,6.04,3.95,3.21,4.53,6.54,47.61-9.03,45.21-47.71-3.48-101.05,4.27-148.06,0-5.2-.47-9.23-.86-13.04-4.94l-1.95-158.1,7.52-10.46Z"/>
        <polygon class="cls-1" points="719.4 212.15 719.4 280.09 781.34 280.09 781.34 212.15 823.3 212.15 823.3 385.98 781.34 385.98 781.34 314.05 719.4 314.05 719.4 385.98 677.44 385.98 677.44 212.15 719.4 212.15"/>
      </g>
      <path class="cls-1" d="M166.45,214.67c2.49-2.34,7.1-2.32,10.39-2.6,47.27-4.05,100.15,3.27,148.04-.02,13.83.44,12.32,26.92,10.99,37.16-3.36,25.99-56.36,1.99-61.62,20.3-3.64,32.79,3.41,71.46-.39,103.51-2.29,19.33-37.56,15.99-48.99,6.96l-1.9-109.99c-5.26-17.3-44.44-.42-56.13-11.81-6.95-6.76-7.15-37.18-.4-43.52Z"/>
      <polygon class="cls-1" points="469.64 212.15 469.64 244.12 391.72 244.12 391.72 280.09 457.65 280.09 457.65 312.05 391.72 312.05 391.72 354.01 469.64 354.01 469.64 385.98 349.76 385.98 349.76 212.15 469.64 212.15"/>
      <g>
        <path class="cls-1" d="M636.99,467.4c-3.27,2.96-15.38,3.05-18.98,6.99-3.2,3.49-1.83,12.01-4.34,16.16-4.69,7.73-23.57.36-22.32,18.34.98,14.12,15.61,8.54,21.11,15.01,4.27,5.03,1.22,11.79,6.89,17.09,8.51,7.94,19.35-.47,21.95,18.01,4.47,31.72-4.87,41.07-36.6,36.6-18.11-2.55-10.21-12.34-17.09-20.87-4.59-5.69-13.29-3.97-18.01-7.97-6.47-5.48-.86-20.11-15.01-21.12-28.39-2.01,3.47,45.49-28.18,49.95-15.17,2.14-33.23,3.36-34.87-14.71-4.33-47.65,3.5-101.69,0-150.04-.28-15.42,37.23-12.72,44.01-7.85,14.67,10.55-5.05,48.52,19.02,47.12,14.35-.84,8.68-17.34,15.85-22.33,4.88-3.4,12.36-.74,17.19-6.78,6.55-8.18-.29-19.11,16.87-21.09,8.17-.95,27.79-1.54,33.07,4.98,5.7,7.04,6,36.58-.55,42.51Z"/>
        <g>
          <polygon class="cls-1" points="473.64 421.95 473.64 453.92 395.72 453.92 395.72 488.88 398.71 491.88 461.65 491.88 461.65 521.85 395.72 521.85 395.72 563.81 473.64 563.81 473.64 595.78 353.76 595.78 353.76 421.95 473.64 421.95"/>
          <g>
            <path class="cls-1" d="M33.51,422.38c11.24-2.49,38.72-4.21,40.63,10.45,2.08,16.01-8.76,63.26,12.88,63.26,18.71,0,7.21-23.44,23.98-24.4,16.96-.97,10.34,19.03,18.97,23.19,31.75,15.29,14.77-56.21,21.86-68.06,4.08-6.82,27.07-5.84,35.12-4.91,11.22,1.3,12.18,6.64,13.03,16.94,3,36.21,3.31,106.06.02,142.03-.88,9.65-2.64,13.71-13.04,14.93-5.53.65-26.73.8-30.97-1.08-7.83-3.47-5.41-15.53-10.04-19.93-3.74-3.55-10.41-2.04-15.1-4.88-9.49-5.76-3.76-24.28-19.91-23.87-12.47.32-9.02,15.7-15.87,21.81-5.1,4.55-13.28,3.37-17.04,6.93-4.62,4.37-2.2,16.46-10.04,19.93-4.26,1.89-25.39,1.72-30.96,1.07-11.22-1.3-12.18-6.64-13.03-16.94-3.03-36.5-3.05-103.53,0-140.02.61-7.31,1.24-14.64,9.5-16.47Z"/>
            <polygon class="cls-1" points="335.77 421.95 335.77 453.92 257.85 453.92 257.85 488.88 260.85 491.88 323.79 491.88 323.79 521.85 257.85 521.85 257.85 563.81 335.77 563.81 335.77 595.78 215.89 595.78 215.89 421.95 335.77 421.95"/>
          </g>
        </g>
        <g>
          <polygon class="cls-1" points="901.22 527.84 901.22 421.95 943.18 421.95 943.18 595.78 899.22 595.78 839.28 489.88 839.28 595.78 797.32 595.78 797.32 421.95 838.28 421.95 901.22 527.84"/>
          <polygon class="cls-1" points="779.34 421.95 779.34 453.92 701.42 453.92 701.42 488.88 704.41 491.88 767.35 491.88 767.35 521.85 701.42 521.85 701.42 563.81 779.34 563.81 779.34 595.78 659.46 595.78 659.46 421.95 779.34 421.95"/>
        </g>
      </g>
      <path class="cls-1" d="M835.77,842.03l112.6-.69c3.08,2.44,2.61,5.69,2.92,9.07,1.99,21.46,2.68,77.49-.02,98.11-1.06,8.11-3.51,8.29-10.97,9.01-20.39,1.98-76.56,2.62-96.12-.02-8.97-1.21-10.25-6.93-10.99-14.99-2.09-22.99-1.73-64.81.02-88.08.32-4.27.96-8.47,2.55-12.42ZM872.25,873.51c-.89,1.34-5,4.35-5,5v39.96c0,.35,4.64,5,5,5h41.96c7.91-11.33,7.85-38.82,0-49.95h-41.96Z"/>
      <path class="cls-1" d="M1203.93,889.49c1.55.32,4.47,2.84,5.99,4,1.54,2.55,1.85,48.78,1.11,55.06-.85,7.21-4.28,8.14-11.07,8.91-22.07,2.53-71.38,1.96-94.03.05-6.49-.55-11.01-.19-12.41-7.46-1.02-5.29-1.77-21.84,2.84-24.75,9.31-5.87,58.46.94,73.54-1.9,8.1-1.53,10.11-13.13,3.66-15.54-2.71-1.01-10.32-2.05-13.63-2.35-16.1-1.48-48.71,3.32-61.5-.44-1.79-.52-3.59-1.91-4.41-3.58-1.78-3.66-1.82-46.57-.85-52.82.64-4.11,2.22-8.63,6.86-9.13l105.5.4c8.62,2.53,5.84,23.11,3.54,30.2-.64,1.04-4.36,3.36-5.14,3.36h-71.93c-.99,0-5.22,5.02-5.09,7.1l5.09,8.89c20.61,2.96,52.86-3.99,71.93,0Z"/>
      <path class="cls-1" d="M712.41,873.51c-.99-.21-5.43-3.07-5.99-4-1.11-7.23-4.17-27.05,4.4-29.57l105.5-.4c4.64.5,6.22,5.02,6.86,9.13.97,6.25.93,49.16-.85,52.82-.81,1.67-2.62,3.06-4.41,3.58-14.6,4.29-49.27-1.73-67.34.6-8.2,1.06-16.09,7.14-10.89,15.51,2.87,4.62,60.33,1.32,70.73,2.2,13.14,1.11,13.01,4.25,13.01,17.06s.12,15.96-13.01,17.06c-21.79,1.84-75.32,2.75-96.08.01-6.53-.86-8.12-2.37-8.99-8.99-.8-6.04-.41-52.56,1.09-55.04,1.28-1.02,5.03-4,5.99-4h71.93c.99,0,5.22-5.02,5.09-7.1l-5.09-8.89c-20.62-2.96-52.85,3.98-71.93,0Z"/>
      <path class="cls-1" d="M968.16,873.51c-8.13-2.33-11.08-30.4-1.17-33.09l108.04.15c.94.44,4.03,3.62,4.03,3.97v57.94l-3,3h-71.93c-9.51,0-11.47,17.98-4,17.98h73.93c6.25,0,8.66,31.57-.4,33.56l-105.07-.02c-2.01-.58-5.55-3.76-6.37-5.62-1.89-4.27-1.95-44.38-.93-50.79.46-2.93,4.67-11.1,6.88-11.1h73.93c5.25,0,5.25-15.98,0-15.98h-73.93Z"/>
      <polygon class="cls-1" points="493.62 663.71 441.67 663.71 441.67 805.57 399.71 805.57 399.71 663.71 347.76 663.71 347.76 629.74 490.62 629.74 493.62 632.74 493.62 663.71"/>
      <polygon class="cls-1" points="815.31 771.61 891.23 771.61 891.23 805.57 771.35 805.57 771.35 629.74 812.31 629.74 815.31 632.74 815.31 771.61"/>
      <rect class="cls-1" x="705.41" y="629.74" width="49.95" height="175.83"/>
      <rect class="cls-1" x="903.22" y="629.74" width="49.95" height="175.83"/>
      <rect class="cls-1" x="1160.97" y="629.74" width="49.95" height="175.83"/>
      <path class="cls-1" d="M527.06,630.22c21.66-3.84,95.83-2.73,119.49-.55,8.48.78,15.7,1.42,17,10.97,2.15,15.83-4.61,78.02,3.92,86,4.94,4.62,19.72,2.42,21.92,14.05,1.46,7.75,1.26,43.57.15,52-1.23,9.4-8.62,12.21-16.99,12.98-45.64,4.21-97.66-3.37-144-.05-6.38-.4-13.13-3.92-13.04-10.94l1.92-160.12c1.62-2.12,6.92-3.85,9.65-4.34ZM577.02,680.17c-14.43,2.57-16.96,18.84-4.97,23.99,7.15,3.07,36.56,3.66,40.45-4.48,10.52-22.02-22.49-21.83-35.48-19.51ZM577.02,730.12c-16.69,2.97-15.93,21.98-2.05,25.07,7.46,1.66,43.39,1.59,51.41.32,16.88-2.67,16.6-22.1,1.68-25.43-7.83-1.75-42.7-1.43-51.04.05Z"/>
      <g>
        <path class="cls-1" d="M1140.51,677.22c-3.11,2.26-6.78,2.25-10.43,2.55-30.54,2.57-68.43-4.04-97.86.05-18.02,2.5-17.08,23.36-2.01,25.72,30.07,4.71,71.26-3.91,101.88.02,6.65.85,10.13,4.27,10.99,10.99,2.05,15.99,1.65,59.64.01,76.15-1.03,10.37-4.76,12.04-15.01,12.97-35.73,3.22-108.37,3.27-144.05,0-9.69-.89-13.71-2.67-14.93-13.04-.98-8.31-2.26-32.28,6.08-35.96l106.72-1.17c15.08-2.36,16.01-23.22-2.01-25.72-30.25-4.2-69.72,3.93-99.87-.02-3.91-.51-8.14-2.29-9.84-6.14-2.27-5.16-1.97-69.02-1.13-78.96,1.02-11.92,4.91-13.92,16.96-15.01,46.36-4.19,100.02,2.63,147.09.97,14.69-1.39,10.86,43.14,7.39,46.61Z"/>
        <path class="cls-1" d="M978.57,422.37c11.19-2.57,62.28-1.74,75.59-.52,20.57,1.89,10.28,13.79,18.71,21.25,4.96,4.39,14.56,2.95,18.31,7.67,3.39,4.26,1.74,12.41,6.75,17.23s13.86,3.08,18.04,7.93c4.19,4.87,1.29,12.41,6.84,17.14,6.7,5.71,18.49.19,20.27,13.69,1.92,14.53,1.87,63.51,0,78.13-1.06,8.31-5.33,10.29-12.97,11.01-47.42,4.49-101.88-3.69-150.08-.02-7.02.09-10.54-6.66-10.94-13.04,3.33-47.03-4.27-99.67-.05-146,.64-7.02,1.56-12.64,9.51-14.46ZM1090.56,543.35c3.44-3.46,3.28-12.44.59-16.64-4.32-6.76-12.85-3.49-18.05-7.91-5.93-5.04-1.18-13.94-10.12-19.85-4.96-3.28-12.59-2.96-15.9-6.08-5.21-4.93-1.77-20.97-14.94-21.13-8.46-.1-12.19,5.45-13.08,13.1-1.24,10.67-1.24,37.36,0,48.04.43,3.73,1.75,8.86,4.89,11.09,4.05,2.87,48.03,2.62,56.18,1.93,3.09-.26,8.23-.35,10.43-2.55Z"/>
      </g>
      <g>
        <path class="cls-1" d="M171.46,80.75c2.26,3.11,2.25,6.78,2.55,10.43.79,9.37.91,77.05-1.05,81.04-2.23,4.51-11.23,5.61-15.94,6.04-45.01,4.17-96.28-3.3-141.98-.03l-13.91-8.07L0,15.24C1.02,6.01,8.68,3.03,16.99,2.26c27-2.49,91.67-3.07,118.02.05,5.22.62,12.95,4.07,14.53,9.45,2.02,6.9,2.08,35.91-5.58,39.55-9.84,4.68-62.81-.97-78.97.95-7.66.91-13.98,4.88-15.04,12.93s-1.31,44.3.15,52c.72,3.79,4.94,8.12,8.46,9.52,7.4,2.95,52.97,2.71,59.98-.92,6.13-3.18,7.02-9.7,5.04-16.16-4.33-14.13-37.12-2.21-45.53-10.4-5.23-5.1-4.21-16.31,2.41-19.51,5.53-2.67,70.12-2.41,80.56-1.53,3.65.31,7.32.3,10.43,2.55Z"/>
        <path class="cls-1" d="M338.48,155.5c-39.32-38.69-30.81-137.05,30.85-152.55,107.48-27.02,125.65,139.95,47.74,167.62-25.19,8.95-59.17,4.04-78.59-15.07ZM385.24,32.76c-17.47,2.52-25.92,20.76-27.47,36.55-1.98,20.15-2.37,67.08,23.41,72.45,42.74,8.9,43.32-43.78,40.49-72.45-1.95-19.73-14.12-39.76-36.43-36.55Z"/>
        <polygon class="cls-1" points="239.87 2.36 239.87 140.22 309.8 140.22 309.8 172.19 197.91 172.19 197.91 2.36 239.87 2.36"/>
        <g>
          <polygon class="cls-1" points="887.24 2.36 887.24 140.22 956.17 140.22 959.17 143.22 959.17 172.19 845.28 172.19 845.28 5.35 848.27 2.36 887.24 2.36"/>
          <path class="cls-1" d="M497.05,2.78l121.5-.47c9.1.66,13.97,6.2,14.99,14.99,2.72,23.53-2.44,51.54.35,75.58,6.04,11,21.12,3.57,23.46,18.5,1.47,9.4,1.3,38.1.17,47.87-.86,7.46-3.26,12.02-10.94,13.04-44.55,5.92-102.08-4.71-148.06,0-6-.19-10.81-5.06-10.99-10.99,4.17-46.1-5.22-100.98.07-146,.76-6.49,2.72-10.84,9.46-12.52ZM581.06,54.78c-3.24-3.25-33.11-3.58-38.1-2.09-4.71,1.41-8.36,9.46-7.09,14.15,3.58,13.17,43.98,13.17,47.31,2.04,1.05-3.5.42-11.56-2.12-14.11ZM605.04,102.73c-3.4-3.41-50.99-3.5-58.34-2.35-14.79,2.32-14.76,21.41,0,23.73,8.05,1.26,44.15,1.5,51.77.07,9.27-1.73,12.29-15.71,6.57-21.45Z"/>
          <path class="cls-1" d="M671.45,172.19L731.56,5.53c4.87-6.71,28.24-1.49,36.87-3.31l64.86,169.97h-43.96l-9.91-31.05-54.06.05-9.95,31.01h-43.96ZM769.35,110.25l-16.98-57.96-18.19,53.83,2.2,4.13h32.97Z"/>
        </g>
      </g>
      <circle class="cls-1" cx="893.04" cy="898.27" r="8.23"/>
    </g>
  </g>
</svg>