<svg xmlns="http://www.w3.org/2000/svg" viewBox="0 0 24 24" id="Hand-Little-Finger--Streamline-Pixel" height="24" width="24">
  <desc>
    Hand Little Finger Streamline Icon: https://streamlinehq.com
  </desc>
  <title>hand-little-finger</title>
  <g>
    <path d="M20.0025 2.2912500000000002h1.1400000000000001v14.857499999999998h-1.1400000000000001Z" fill="#00c400" stroke-width="0.75"></path>
    <path d="M18.862499999999997 19.42875H7.4325v-1.1400000000000001H6.285v1.1400000000000001H5.1450000000000005v3.4275h15.997499999999999v-3.4275h-1.1400000000000001v-2.2800000000000002h-1.1400000000000001Zm0 2.2874999999999996H16.575000000000003v-1.1400000000000001h2.2874999999999996Z" fill="#00c400" stroke-width="0.75"></path>
    <path d="M17.715 1.1437499999999998h2.2874999999999996v1.1475h-2.2874999999999996Z" fill="#00c400" stroke-width="0.75"></path>
    <path d="M14.287500000000001 12.57375h2.2874999999999996v1.1400000000000001h-2.2874999999999996Z" fill="#00c400" stroke-width="0.75"></path>
    <path d="M8.5725 13.713750000000001H12v1.1475h-3.4275Z" fill="#00c400" stroke-width="0.75"></path>
    <path d="m9.712499999999999 9.14625 -1.1400000000000001 0 0 1.1400000000000001 2.2874999999999996 0 0 -3.4275 2.2874999999999996 0 0 3.4275 -2.2874999999999996 0 0 1.1475 1.1400000000000001 0 0 2.2800000000000002 1.1475 0 0 -1.1400000000000001 1.1400000000000001 0 0 -5.715 2.2874999999999996 0 0 5.715 1.1400000000000001 0 0 -10.2825 -1.1400000000000001 0 0 3.4275 -9.1425 0 0 1.1400000000000001 2.2800000000000002 0 0 2.2874999999999996z" fill="#00c400" stroke-width="0.75"></path>
    <path d="M7.4325 12.57375h1.1400000000000001v1.1400000000000001H7.4325Z" fill="#00c400" stroke-width="0.75"></path>
    <path d="m8.5725 9.14625 0 -1.1475 -1.1400000000000001 0 0 -1.1400000000000001 -1.1475 0 0 1.1400000000000001 -1.1400000000000001 0 0 1.1475 3.4275 0z" fill="#00c400" stroke-width="0.75"></path>
    <path d="M5.1450000000000005 17.14875h1.1400000000000001v1.1400000000000001H5.1450000000000005Z" fill="#00c400" stroke-width="0.75"></path>
    <path d="M4.005 14.861250000000002h1.1400000000000001v2.2874999999999996H4.005Z" fill="#00c400" stroke-width="0.75"></path>
    <path d="M4.005 9.14625h1.1400000000000001v1.1400000000000001H4.005Z" fill="#00c400" stroke-width="0.75"></path>
    <path d="M2.8575 10.286249999999999h1.1475v4.574999999999999H2.8575Z" fill="#00c400" stroke-width="0.75"></path>
  </g>
</svg>