<svg xmlns="http://www.w3.org/2000/svg" viewBox="0 0 24 24" id="Hand-Three-Finger--Streamline-Pixel" height="24" width="24">
  <desc>
    Hand Three Finger Streamline Icon: https://streamlinehq.com
  </desc>
  <title>hand-three-finger</title>
  <g>
    <path d="m19.995 13.7175 -2.2800000000000002 0 0 1.1400000000000001 2.2800000000000002 0 0 3.435 1.1475 0 0 -8.0025 -1.1475 0 0 3.4275z" fill="#00c400" stroke-width="0.75"></path>
    <path d="M18.855 20.572499999999998H7.425000000000001v-1.1400000000000001H6.285v1.1400000000000001H5.137499999999999V24h16.005v-3.4275h-1.1475v-2.2800000000000002h-1.1400000000000001Zm0 2.2874999999999996h-2.2874999999999996v-1.1400000000000001h2.2874999999999996Z" fill="#00c400" stroke-width="0.75"></path>
    <path d="M18.855 9.1425h1.1400000000000001v1.1475h-1.1400000000000001Z" fill="#00c400" stroke-width="0.75"></path>
    <path d="m16.5675 13.7175 1.1475 0 0 -4.574999999999999 1.1400000000000001 0 0 -1.1400000000000001 -1.1400000000000001 0 0 -4.5675 -1.1475 0 0 10.2825z" fill="#00c400" stroke-width="0.75"></path>
    <path d="m13.14 11.43 1.1475 0 0 -7.995 2.2800000000000002 0 0 -1.1475 -2.2800000000000002 0 0 -1.1400000000000001 -1.1475 0 0 10.2825z" fill="#00c400" stroke-width="0.75"></path>
    <path d="M12 12.5775h1.1400000000000001v2.2800000000000002H12Z" fill="#00c400" stroke-width="0.75"></path>
    <path d="M10.852500000000001 0h2.2874999999999996v1.1475h-2.2874999999999996Z" fill="#00c400" stroke-width="0.75"></path>
    <path d="M10.852500000000001 11.43H12v1.1475h-1.1475Z" fill="#00c400" stroke-width="0.75"></path>
    <path d="M8.5725 14.857499999999998H12v1.1475h-3.4275Z" fill="#00c400" stroke-width="0.75"></path>
    <path d="m9.712499999999999 10.290000000000001 -1.1400000000000001 0 0 1.1400000000000001 2.2800000000000002 0 0 -10.2825 -3.4275 0 0 1.1400000000000001 2.2874999999999996 0 0 8.0025z" fill="#00c400" stroke-width="0.75"></path>
    <path d="M7.425000000000001 13.7175h1.1475v1.1400000000000001H7.425000000000001Z" fill="#00c400" stroke-width="0.75"></path>
    <path d="m8.5725 10.290000000000001 0 -1.1475 -1.1475 0 0 -6.855 -1.1400000000000001 0 0 6.855 -1.1475 0 0 1.1475 3.435 0z" fill="#00c400" stroke-width="0.75"></path>
    <path d="M5.137499999999999 18.2925h1.1475v1.1400000000000001H5.137499999999999Z" fill="#00c400" stroke-width="0.75"></path>
    <path d="M3.9975 16.005h1.1400000000000001v2.2874999999999996H3.9975Z" fill="#00c400" stroke-width="0.75"></path>
    <path d="M3.9975 10.290000000000001h1.1400000000000001v1.1400000000000001H3.9975Z" fill="#00c400" stroke-width="0.75"></path>
    <path d="M2.8575 11.43h1.1400000000000001v4.574999999999999H2.8575Z" fill="#00c400" stroke-width="0.75"></path>
  </g>
</svg>