<svg xmlns="http://www.w3.org/2000/svg" viewBox="0 0 24 24" id="Hand-Love-Sign--Streamline-Pixel" height="24" width="24">
  <desc>
    Hand Love Sign Streamline Icon: https://streamlinehq.com
  </desc>
  <title>hand-love-sign</title>
  <g>
    <path d="M20.0025 3.4275h1.1400000000000001v14.857499999999998h-1.1400000000000001Z" fill="#00c400" stroke-width="0.75"></path>
    <path d="M18.855 20.572499999999998H7.4325v-1.1400000000000001H6.285v1.1400000000000001H5.1450000000000005V24h15.997499999999999v-3.4275h-1.1400000000000001v-2.2874999999999996h-1.1475Zm0 2.2874999999999996H16.575000000000003v-1.1475h2.2800000000000002Z" fill="#00c400" stroke-width="0.75"></path>
    <path d="M17.715 2.2874999999999996h2.2874999999999996v1.1400000000000001h-2.2874999999999996Z" fill="#00c400" stroke-width="0.75"></path>
    <path d="M14.287500000000001 13.7175h2.2874999999999996v1.1400000000000001h-2.2874999999999996Z" fill="#00c400" stroke-width="0.75"></path>
    <path d="M8.5725 14.857499999999998H12v1.1400000000000001h-3.4275Z" fill="#00c400" stroke-width="0.75"></path>
    <path d="m9.712499999999999 10.2825 -1.1400000000000001 0 0 1.1475 2.2874999999999996 0 0 -3.4275 2.2874999999999996 0 0 3.4275 -2.2874999999999996 0 0 1.1400000000000001 1.1400000000000001 0 0 2.2874999999999996 1.1475 0 0 -1.1400000000000001 1.1400000000000001 0 0 -5.715 2.2874999999999996 0 0 5.715 1.1400000000000001 0 0 -10.290000000000001 -1.1400000000000001 0 0 3.4275 -5.715 0 0 -5.715 -1.1475 0 0 9.1425z" fill="#00c400" stroke-width="0.75"></path>
    <path d="M7.4325 0h2.2800000000000002v1.1400000000000001H7.4325Z" fill="#00c400" stroke-width="0.75"></path>
    <path d="M7.4325 13.7175h1.1400000000000001v1.1400000000000001H7.4325Z" fill="#00c400" stroke-width="0.75"></path>
    <path d="m8.5725 10.2825 0 -1.1400000000000001 -1.1400000000000001 0 0 -8.0025 -1.1475 0 0 8.0025 -1.1400000000000001 0 0 1.1400000000000001 3.4275 0z" fill="#00c400" stroke-width="0.75"></path>
    <path d="M5.1450000000000005 18.285h1.1400000000000001v1.1475H5.1450000000000005Z" fill="#00c400" stroke-width="0.75"></path>
    <path d="M4.005 15.997499999999999h1.1400000000000001v2.2874999999999996H4.005Z" fill="#00c400" stroke-width="0.75"></path>
    <path d="M4.005 10.2825h1.1400000000000001v1.1475H4.005Z" fill="#00c400" stroke-width="0.75"></path>
    <path d="M2.8575 11.43h1.1475v4.5675H2.8575Z" fill="#00c400" stroke-width="0.75"></path>
  </g>
</svg>