<svg xmlns="http://www.w3.org/2000/svg" viewBox="0 0 24 24" id="Beauty-Beard-Style--Streamline-Pixel" height="24" width="24">
  <desc>
    Beauty Beard Style Streamline Icon: https://streamlinehq.com
  </desc>
  <title>beauty-beard-style</title>
  <g>
    <path d="M22.86 1.1475H24v4.5675h-1.1400000000000001Z" fill="#00c400" stroke-width="0.75"></path>
    <path d="M21.72 5.715h1.1400000000000001v1.1475h-1.1400000000000001Z" fill="#00c400" stroke-width="0.75"></path>
    <path d="M2.2874999999999996 10.290000000000001v6.855h1.1475v2.2874999999999996H4.574999999999999v2.2874999999999996h1.1400000000000001v1.1400000000000001h2.2874999999999996V24h8.0025v-1.1400000000000001h2.2874999999999996v-1.1400000000000001h1.1400000000000001v-2.2874999999999996h1.1400000000000001v-2.2874999999999996h1.1475v-6.855h-1.1475v2.2874999999999996h-1.1400000000000001v1.1400000000000001h-1.1400000000000001v-2.2874999999999996h-1.1475v-1.1400000000000001H6.862500000000001v1.1400000000000001H5.715v2.2874999999999996H4.574999999999999v-1.1400000000000001H3.435v-2.2874999999999996Zm4.574999999999999 4.5675h1.1400000000000001v-2.2800000000000002h3.4275v-1.1475h1.1475v1.1475h3.4275v1.1400000000000001h1.1400000000000001v3.4275h-1.1400000000000001v1.1400000000000001h-2.2874999999999996v-1.1400000000000001h-3.4275v1.1400000000000001h-2.2874999999999996v-1.1400000000000001H6.862500000000001Z" fill="#00c400" stroke-width="0.75"></path>
    <path d="M20.572499999999998 6.862500000000001h1.1475v1.1400000000000001h-1.1475Z" fill="#00c400" stroke-width="0.75"></path>
    <path d="M19.4325 3.4275h1.1400000000000001V4.574999999999999h-1.1400000000000001Z" fill="#00c400" stroke-width="0.75"></path>
    <path d="M16.005 8.0025h4.5675v1.1400000000000001h-4.5675Z" fill="#00c400" stroke-width="0.75"></path>
    <path d="M18.2925 4.574999999999999h1.1400000000000001v1.1400000000000001h-1.1400000000000001Z" fill="#00c400" stroke-width="0.75"></path>
    <path d="M17.145 5.715h1.1475v1.1475h-1.1475Z" fill="#00c400" stroke-width="0.75"></path>
    <path d="M17.145 2.2874999999999996h1.1475v1.1400000000000001h-1.1475Z" fill="#00c400" stroke-width="0.75"></path>
    <path d="M16.005 3.4275h1.1400000000000001V4.574999999999999h-1.1400000000000001Z" fill="#00c400" stroke-width="0.75"></path>
    <path d="M14.857499999999998 6.862500000000001h1.1475v1.1400000000000001h-1.1475Z" fill="#00c400" stroke-width="0.75"></path>
    <path d="M13.7175 0h9.1425v1.1475H13.7175Z" fill="#00c400" stroke-width="0.75"></path>
    <path d="M13.7175 13.7175h1.1400000000000001v1.1400000000000001h-1.1400000000000001Z" fill="#00c400" stroke-width="0.75"></path>
    <path d="M13.7175 5.715h1.1400000000000001v1.1475h-1.1400000000000001Z" fill="#00c400" stroke-width="0.75"></path>
    <path d="m13.7175 1.1475 -1.1400000000000001 0 0 1.1400000000000001 -1.1475 0 0 -1.1400000000000001 -1.1400000000000001 0 0 4.5675 1.1400000000000001 0 0 -2.2874999999999996 1.1475 0 0 2.2874999999999996 1.1400000000000001 0 0 -4.5675z" fill="#00c400" stroke-width="0.75"></path>
    <path d="M11.43 14.857499999999998h2.2874999999999996v1.1475h-2.2874999999999996Z" fill="#00c400" stroke-width="0.75"></path>
    <path d="M10.290000000000001 8.0025h3.4275v1.1400000000000001h-3.4275Z" fill="#00c400" stroke-width="0.75"></path>
    <path d="M9.149999999999999 5.715h1.1400000000000001v1.1475H9.149999999999999Z" fill="#00c400" stroke-width="0.75"></path>
    <path d="M8.0025 6.862500000000001h1.1475v1.1400000000000001h-1.1475Z" fill="#00c400" stroke-width="0.75"></path>
    <path d="M6.862500000000001 3.4275h1.1400000000000001V4.574999999999999H6.862500000000001Z" fill="#00c400" stroke-width="0.75"></path>
    <path d="M3.435 8.0025h4.5675v1.1400000000000001H3.435Z" fill="#00c400" stroke-width="0.75"></path>
    <path d="M5.715 4.574999999999999h1.1475v1.1400000000000001H5.715Z" fill="#00c400" stroke-width="0.75"></path>
    <path d="M4.574999999999999 5.715h1.1400000000000001v1.1475H4.574999999999999Z" fill="#00c400" stroke-width="0.75"></path>
    <path d="M4.574999999999999 2.2874999999999996h1.1400000000000001v1.1400000000000001H4.574999999999999Z" fill="#00c400" stroke-width="0.75"></path>
    <path d="M3.435 3.4275H4.574999999999999V4.574999999999999H3.435Z" fill="#00c400" stroke-width="0.75"></path>
    <path d="M2.2874999999999996 6.862500000000001h1.1475v1.1400000000000001H2.2874999999999996Z" fill="#00c400" stroke-width="0.75"></path>
    <path d="M1.1475 0h9.1425v1.1475H1.1475Z" fill="#00c400" stroke-width="0.75"></path>
    <path d="M1.1475 5.715h1.1400000000000001v1.1475H1.1475Z" fill="#00c400" stroke-width="0.75"></path>
    <path d="M0 1.1475h1.1475v4.5675H0Z" fill="#00c400" stroke-width="0.75"></path>
  </g>
</svg>