<svg xmlns="http://www.w3.org/2000/svg" viewBox="0 0 24 24" id="Entertainment-Events-Hobbies-Game-Machines-Arcade-1--Streamline-Pixel" height="24" width="24">
  <desc>
    Entertainment Events Hobbies Game Machines Arcade 1 Streamline Icon: https://streamlinehq.com
  </desc>
  <title>entertainment-events-hobbies-game-machines-arcade-1</title>
  <g>
    <path d="M22.8525 4.574999999999999H24V24h-1.1475Z" fill="#00c400" stroke-width="0.75"></path>
    <path d="M21.7125 3.4275h1.1400000000000001V4.574999999999999h-1.1400000000000001Z" fill="#00c400" stroke-width="0.75"></path>
    <path d="M20.565 2.2874999999999996h1.1475v1.1400000000000001h-1.1475Z" fill="#00c400" stroke-width="0.75"></path>
    <path d="M19.424999999999997 1.1400000000000001h1.1400000000000001v1.1475H19.424999999999997Z" fill="#00c400" stroke-width="0.75"></path>
    <path d="M2.2800000000000002 0v4.574999999999999h1.1475v1.1400000000000001h1.1400000000000001v10.2825H3.4275v1.1475H2.2800000000000002v1.1400000000000001H1.1400000000000001v1.1400000000000001h14.857499999999998V24h1.1400000000000001v-5.715h1.1475v-1.1400000000000001h1.1400000000000001v-1.1475h1.1400000000000001V5.715H19.424999999999997V4.574999999999999h-1.1400000000000001V1.1400000000000001h1.1400000000000001V0Zm5.715 1.1400000000000001h9.1425v2.2874999999999996H7.995Zm-2.2874999999999996 0h1.1475v2.2874999999999996H5.7075000000000005ZM3.4275 3.4275V1.1400000000000001h1.1400000000000001v2.2874999999999996Zm3.4275 13.7175H5.7075000000000005v1.1400000000000001H4.5675v-1.1400000000000001h1.1400000000000001v-1.1475h1.1475Zm3.4275 0h-1.1400000000000001v1.1400000000000001h-1.1475v-1.1400000000000001h1.1475v-1.1475h1.1400000000000001Zm5.715 1.1400000000000001h-3.4275v-1.1400000000000001h3.4275Zm1.1400000000000001 -3.4275H7.995v-6.855h9.1425Zm1.1475 -8.0025H5.7075000000000005V5.715h12.5775Z" fill="#00c400" stroke-width="0.75"></path>
    <path d="M14.850000000000001 11.43h1.1475v1.1400000000000001H14.850000000000001Z" fill="#00c400" stroke-width="0.75"></path>
    <path d="M13.71 9.1425h1.1400000000000001v1.1400000000000001h-1.1400000000000001Z" fill="#00c400" stroke-width="0.75"></path>
    <path d="m14.850000000000001 24 0 -2.2874999999999996 -3.4275 0 0 2.2874999999999996 1.1475 0 0 -1.1400000000000001 1.1400000000000001 0 0 1.1400000000000001 1.1400000000000001 0z" fill="#00c400" stroke-width="0.75"></path>
    <path d="M10.2825 12.57h4.5675v1.1475h-4.5675Z" fill="#00c400" stroke-width="0.75"></path>
    <path d="M10.2825 9.1425h1.1400000000000001v1.1400000000000001h-1.1400000000000001Z" fill="#00c400" stroke-width="0.75"></path>
    <path d="M9.1425 11.43h1.1400000000000001v1.1400000000000001h-1.1400000000000001Z" fill="#00c400" stroke-width="0.75"></path>
    <path d="M0 19.424999999999997h1.1400000000000001V24H0Z" fill="#00c400" stroke-width="0.75"></path>
  </g>
</svg>