<svg xmlns="http://www.w3.org/2000/svg" viewBox="0 0 24 24" id="Hand-Cross-Finger-Heart--Streamline-Pixel" height="24" width="24">
  <desc>
    Hand Cross Finger Heart Streamline Icon: https://streamlinehq.com
  </desc>
  <title>hand-cross-finger-heart</title>
  <g>
    <path d="M20.0025 20.572499999999998h1.1400000000000001V24h-1.1400000000000001Z" fill="#00c400" stroke-width="0.75"></path>
    <path d="M18.855 19.4325h1.1475v1.1400000000000001h-1.1475Z" fill="#00c400" stroke-width="0.75"></path>
    <path d="M17.715 20.572499999999998h1.1400000000000001v1.1400000000000001h-1.1400000000000001Z" fill="#00c400" stroke-width="0.75"></path>
    <path d="M17.715 18.285h1.1400000000000001v1.1475h-1.1400000000000001Z" fill="#00c400" stroke-width="0.75"></path>
    <path d="M16.5675 21.7125h1.1475v1.1475h-1.1475Z" fill="#00c400" stroke-width="0.75"></path>
    <path d="M15.4275 17.145h2.2874999999999996v1.1400000000000001h-2.2874999999999996Z" fill="#00c400" stroke-width="0.75"></path>
    <path d="M16.5675 8.0025h1.1475v3.4275h-1.1475Z" fill="#00c400" stroke-width="0.75"></path>
    <path d="M15.4275 22.86h1.1400000000000001V24h-1.1400000000000001Z" fill="#00c400" stroke-width="0.75"></path>
    <path d="M15.4275 11.43h1.1400000000000001v1.1400000000000001h-1.1400000000000001Z" fill="#00c400" stroke-width="0.75"></path>
    <path d="M14.287500000000001 6.855h2.2800000000000002v1.1475h-2.2800000000000002Z" fill="#00c400" stroke-width="0.75"></path>
    <path d="M14.287500000000001 18.285h1.1400000000000001v1.1475h-1.1400000000000001Z" fill="#00c400" stroke-width="0.75"></path>
    <path d="M13.14 15.997499999999999h2.2874999999999996v1.1475h-2.2874999999999996Z" fill="#00c400" stroke-width="0.75"></path>
    <path d="M14.287500000000001 12.57h1.1400000000000001v1.1475h-1.1400000000000001Z" fill="#00c400" stroke-width="0.75"></path>
    <path d="M13.14 19.4325h1.1475v1.1400000000000001h-1.1475Z" fill="#00c400" stroke-width="0.75"></path>
    <path d="M13.14 13.7175h1.1475v1.1400000000000001h-1.1475Z" fill="#00c400" stroke-width="0.75"></path>
    <path d="M13.14 8.0025h1.1475v1.1400000000000001h-1.1475Z" fill="#00c400" stroke-width="0.75"></path>
    <path d="M12 20.572499999999998h1.1400000000000001v1.1400000000000001H12Z" fill="#00c400" stroke-width="0.75"></path>
    <path d="M12 14.857499999999998h1.1400000000000001v1.1400000000000001H12Z" fill="#00c400" stroke-width="0.75"></path>
    <path d="M12 9.1425h1.1400000000000001v1.1400000000000001H12Z" fill="#00c400" stroke-width="0.75"></path>
    <path d="M10.86 15.997499999999999H12v1.1475h-1.1400000000000001Z" fill="#00c400" stroke-width="0.75"></path>
    <path d="M10.86 10.2825H12v1.1475h-1.1400000000000001Z" fill="#00c400" stroke-width="0.75"></path>
    <path d="M9.712499999999999 17.145h1.1475v1.1400000000000001h-1.1475Z" fill="#00c400" stroke-width="0.75"></path>
    <path d="M9.712499999999999 11.43h1.1475v1.1400000000000001h-1.1475Z" fill="#00c400" stroke-width="0.75"></path>
    <path d="M8.5725 12.57h1.1400000000000001v1.1475h-1.1400000000000001Z" fill="#00c400" stroke-width="0.75"></path>
    <path d="M8.5725 9.1425h1.1400000000000001v2.2874999999999996h-1.1400000000000001Z" fill="#00c400" stroke-width="0.75"></path>
    <path d="M7.425000000000001 13.7175h1.1475v1.1400000000000001H7.425000000000001Z" fill="#00c400" stroke-width="0.75"></path>
    <path d="m7.425000000000001 0 0 1.1400000000000001 -1.1400000000000001 0 0 2.2874999999999996 1.1400000000000001 0 0 1.1475 1.1475 0 0 1.1400000000000001 1.1400000000000001 0 0 1.1400000000000001 1.1475 0 0 -1.1400000000000001 1.1400000000000001 0 0 -1.1400000000000001 1.1400000000000001 0 0 -1.1475 1.1475 0 0 -2.2874999999999996 -1.1475 0 0 -1.1400000000000001 -2.2800000000000002 0 0 1.1400000000000001 -1.1475 0 0 -1.1400000000000001L7.425000000000001 0z" fill="#00c400" stroke-width="0.75"></path>
    <path d="M5.1450000000000005 8.0025h3.4275v1.1400000000000001H5.1450000000000005Z" fill="#00c400" stroke-width="0.75"></path>
    <path d="m6.285 12.57 -1.1400000000000001 0 0 4.574999999999999 1.1400000000000001 0 0 -1.1475 1.1400000000000001 0 0 -1.1400000000000001 -1.1400000000000001 0 0 -2.2874999999999996z" fill="#00c400" stroke-width="0.75"></path>
    <path d="M3.9975 17.145h1.1475v1.1400000000000001H3.9975Z" fill="#00c400" stroke-width="0.75"></path>
    <path d="M3.9975 9.1425h1.1475v3.4275H3.9975Z" fill="#00c400" stroke-width="0.75"></path>
    <path d="M2.8575 18.285h1.1400000000000001V24H2.8575Z" fill="#00c400" stroke-width="0.75"></path>
  </g>
</svg>