<svg xmlns="http://www.w3.org/2000/svg" viewBox="0 0 24 24" id="Interface-Essential-Finger-Print-Scan--Streamline-Pixel" height="24" width="24">
  <desc>
    Interface Essential Finger Print Scan Streamline Icon: https://streamlinehq.com
  </desc>
  <title>interface-essential-finger-print-scan</title>
  <g>
    <path d="M20.572499999999998 8.0025h1.1400000000000001v10.2825h-1.1400000000000001Z" fill="#00c400" stroke-width="0.75"></path>
    <path d="M20.572499999999998 5.715h1.1400000000000001v1.1400000000000001h-1.1400000000000001Z" fill="#00c400" stroke-width="0.75"></path>
    <path d="M19.4325 18.285h1.1400000000000001v2.2874999999999996h-1.1400000000000001Z" fill="#00c400" stroke-width="0.75"></path>
    <path d="M19.4325 3.4275h1.1400000000000001v2.2874999999999996h-1.1400000000000001Z" fill="#00c400" stroke-width="0.75"></path>
    <path d="M18.285 13.7175h1.1475v3.4275h-1.1475Z" fill="#00c400" stroke-width="0.75"></path>
    <path d="M18.285 6.855h1.1475v3.4275h-1.1475Z" fill="#00c400" stroke-width="0.75"></path>
    <path d="M17.145 17.145h1.1400000000000001v2.2874999999999996h-1.1400000000000001Z" fill="#00c400" stroke-width="0.75"></path>
    <path d="M17.145 4.574999999999999h1.1400000000000001v2.2800000000000002h-1.1400000000000001Z" fill="#00c400" stroke-width="0.75"></path>
    <path d="M15.997499999999999 21.7125h1.1475v1.1475h-1.1475Z" fill="#00c400" stroke-width="0.75"></path>
    <path d="M15.997499999999999 8.0025h1.1475v7.995h-1.1475Z" fill="#00c400" stroke-width="0.75"></path>
    <path d="M14.857499999999998 3.4275h2.2874999999999996V4.574999999999999h-2.2874999999999996Z" fill="#00c400" stroke-width="0.75"></path>
    <path d="M15.997499999999999 1.1400000000000001h1.1475v1.1475h-1.1475Z" fill="#00c400" stroke-width="0.75"></path>
    <path d="M14.857499999999998 19.4325h2.2874999999999996v1.1400000000000001h-2.2874999999999996Z" fill="#00c400" stroke-width="0.75"></path>
    <path d="M14.857499999999998 6.855h1.1400000000000001v1.1475h-1.1400000000000001Z" fill="#00c400" stroke-width="0.75"></path>
    <path d="M13.7175 22.86h2.2800000000000002V24h-2.2800000000000002Z" fill="#00c400" stroke-width="0.75"></path>
    <path d="M13.7175 17.145h1.1400000000000001v1.1400000000000001h-1.1400000000000001Z" fill="#00c400" stroke-width="0.75"></path>
    <path d="M13.7175 12.57h1.1400000000000001v2.2874999999999996h-1.1400000000000001Z" fill="#00c400" stroke-width="0.75"></path>
    <path d="M13.7175 9.1425h1.1400000000000001v2.2874999999999996h-1.1400000000000001Z" fill="#00c400" stroke-width="0.75"></path>
    <path d="M12.57 2.2874999999999996h2.2874999999999996v1.1400000000000001h-2.2874999999999996Z" fill="#00c400" stroke-width="0.75"></path>
    <path d="M9.1425 20.572499999999998h5.715v1.1400000000000001h-5.715Z" fill="#00c400" stroke-width="0.75"></path>
    <path d="M11.43 8.0025h2.2874999999999996v1.1400000000000001h-2.2874999999999996Z" fill="#00c400" stroke-width="0.75"></path>
    <path d="M10.2825 14.857499999999998h3.435v1.1400000000000001h-3.435Z" fill="#00c400" stroke-width="0.75"></path>
    <path d="M11.43 10.2825h1.1400000000000001v3.435h-1.1400000000000001Z" fill="#00c400" stroke-width="0.75"></path>
    <path d="M10.2825 4.574999999999999h3.435v1.1400000000000001h-3.435Z" fill="#00c400" stroke-width="0.75"></path>
    <path d="M10.2825 18.285h3.435v1.1475h-3.435Z" fill="#00c400" stroke-width="0.75"></path>
    <path d="M9.1425 2.2874999999999996h2.2874999999999996v1.1400000000000001h-2.2874999999999996Z" fill="#00c400" stroke-width="0.75"></path>
    <path d="M8.0025 22.86h3.4275V24h-3.4275Z" fill="#00c400" stroke-width="0.75"></path>
    <path d="M9.1425 17.145h1.1400000000000001v1.1400000000000001h-1.1400000000000001Z" fill="#00c400" stroke-width="0.75"></path>
    <path d="M9.1425 10.2825h1.1400000000000001v4.574999999999999h-1.1400000000000001Z" fill="#00c400" stroke-width="0.75"></path>
    <path d="M8.0025 0h7.995v1.1400000000000001H8.0025Z" fill="#00c400" stroke-width="0.75"></path>
    <path d="M8.0025 6.855h1.1400000000000001v1.1475h-1.1400000000000001Z" fill="#00c400" stroke-width="0.75"></path>
    <path d="M6.855 3.4275h2.2874999999999996V4.574999999999999H6.855Z" fill="#00c400" stroke-width="0.75"></path>
    <path d="M5.715 21.7125h2.2874999999999996v1.1475H5.715Z" fill="#00c400" stroke-width="0.75"></path>
    <path d="M6.855 14.857499999999998h1.1475v1.1400000000000001H6.855Z" fill="#00c400" stroke-width="0.75"></path>
    <path d="M6.855 11.43h1.1475v2.2874999999999996H6.855Z" fill="#00c400" stroke-width="0.75"></path>
    <path d="M6.855 8.0025h1.1475v2.2800000000000002H6.855Z" fill="#00c400" stroke-width="0.75"></path>
    <path d="M5.715 17.145h1.1400000000000001v2.2874999999999996H5.715Z" fill="#00c400" stroke-width="0.75"></path>
    <path d="M5.715 4.574999999999999h1.1400000000000001v2.2800000000000002H5.715Z" fill="#00c400" stroke-width="0.75"></path>
    <path d="M4.574999999999999 20.572499999999998h1.1400000000000001v1.1400000000000001H4.574999999999999Z" fill="#00c400" stroke-width="0.75"></path>
    <path d="M4.574999999999999 8.0025h1.1400000000000001v9.1425H4.574999999999999Z" fill="#00c400" stroke-width="0.75"></path>
    <path d="M4.574999999999999 2.2874999999999996h1.1400000000000001v1.1400000000000001H4.574999999999999Z" fill="#00c400" stroke-width="0.75"></path>
    <path d="M3.4275 18.285H4.574999999999999v2.2874999999999996H3.4275Z" fill="#00c400" stroke-width="0.75"></path>
    <path d="M3.4275 3.4275H4.574999999999999v2.2874999999999996H3.4275Z" fill="#00c400" stroke-width="0.75"></path>
    <path d="M2.2874999999999996 14.857499999999998h1.1400000000000001v3.4275H2.2874999999999996Z" fill="#00c400" stroke-width="0.75"></path>
    <path d="M2.2874999999999996 5.715h1.1400000000000001v8.0025H2.2874999999999996Z" fill="#00c400" stroke-width="0.75"></path>
  </g>
</svg>