<svg xmlns="http://www.w3.org/2000/svg" viewBox="0 0 24 24" id="Ui-Design-Website--Streamline-Pixel" height="24" width="24">
  <desc>
    Ui Design Website Streamline Icon: https://streamlinehq.com
  </desc>
  <title>ui-design-website</title>
  <g>
    <path d="m22.86 5.71875 -21.7125 0 0 -3.4275 -1.1475 0 0 19.424999999999997 1.1475 0 0 -14.857499999999998 21.7125 0 0 14.857499999999998 1.1400000000000001 0 0 -19.424999999999997 -1.1400000000000001 0 0 3.4275z" fill="#00c400" stroke-width="0.75"></path>
    <path d="M1.1475 21.71625h21.7125v1.1400000000000001H1.1475Z" fill="#00c400" stroke-width="0.75"></path>
    <path d="M19.4325 14.861250000000002h1.1400000000000001v3.4275h-1.1400000000000001Z" fill="#00c400" stroke-width="0.75"></path>
    <path d="M18.285 18.28875h1.1475v1.1400000000000001h-1.1475Z" fill="#00c400" stroke-width="0.75"></path>
    <path d="M18.285 13.713750000000001h1.1475v1.1475h-1.1475Z" fill="#00c400" stroke-width="0.75"></path>
    <path d="M14.857499999999998 19.42875h3.4275v1.1475h-3.4275Z" fill="#00c400" stroke-width="0.75"></path>
    <path d="m18.285 13.713750000000001 0 -1.1400000000000001 -1.1400000000000001 0 0 -4.5675 -13.7175 0 0 6.855 2.2874999999999996 0 0 -1.1475 -1.1400000000000001 0 0 -4.5675 11.43 0 0 3.4275 -1.1475 0 0 1.1400000000000001 3.4275 0z" fill="#00c400" stroke-width="0.75"></path>
    <path d="M13.7175 18.28875h1.1400000000000001v1.1400000000000001h-1.1400000000000001Z" fill="#00c400" stroke-width="0.75"></path>
    <path d="M13.7175 13.713750000000001h1.1400000000000001v1.1475h-1.1400000000000001Z" fill="#00c400" stroke-width="0.75"></path>
    <path d="M12.57 14.861250000000002h1.1475v3.4275h-1.1475Z" fill="#00c400" stroke-width="0.75"></path>
    <path d="M6.855 3.4312500000000004h1.1475v1.1400000000000001H6.855Z" fill="#00c400" stroke-width="0.75"></path>
    <path d="m4.574999999999999 16.00125 0 1.1475 -1.1475 0 0 1.1400000000000001 8.0025 0 0 -3.4275 -1.1400000000000001 0 0 -1.1475 -1.1475 0 0 -1.1400000000000001 -1.1400000000000001 0 0 1.1400000000000001 -1.1475 0 0 1.1475 -1.1400000000000001 0 0 1.1400000000000001 -1.1400000000000001 0z" fill="#00c400" stroke-width="0.75"></path>
    <path d="M4.574999999999999 3.4312500000000004h1.1400000000000001v1.1400000000000001H4.574999999999999Z" fill="#00c400" stroke-width="0.75"></path>
    <path d="M2.2874999999999996 3.4312500000000004h1.1400000000000001v1.1400000000000001H2.2874999999999996Z" fill="#00c400" stroke-width="0.75"></path>
    <path d="M1.1475 1.1437499999999998h21.7125v1.1475H1.1475Z" fill="#00c400" stroke-width="0.75"></path>
  </g>
</svg>